<mxfile host="app.diagrams.net" agent="Mozilla/5.0 (Windows NT 10.0; Win64; x64) AppleWebKit/537.36 (KHTML, like Gecko) Chrome/131.0.0.0 Safari/537.36" version="25.0.3">
  <diagram name="FOC 无感核心算法" id="3-nX8cObhvYd6T8ZdyRS">
    <mxGraphModel dx="954" dy="558" grid="1" gridSize="10" guides="1" tooltips="1" connect="1" arrows="1" fold="1" page="1" pageScale="1" pageWidth="1169" pageHeight="827" math="0" shadow="0">
      <root>
        <mxCell id="0" />
        <mxCell id="1" parent="0" />
        <mxCell id="nPId89hetOlhef9QkJUg-1" value="Speed&lt;div&gt;Regulator&amp;nbsp;&lt;/div&gt;" style="rounded=0;whiteSpace=wrap;html=1;fillColor=#dae8fc;strokeColor=#6c8ebf;" parent="1" vertex="1">
          <mxGeometry x="40" y="200" width="80" height="40" as="geometry" />
        </mxCell>
        <mxCell id="zeCSSIE1rZjSfiVyKvIU-3" style="edgeStyle=orthogonalEdgeStyle;rounded=0;orthogonalLoop=1;jettySize=auto;html=1;exitX=1;exitY=0.5;exitDx=0;exitDy=0;exitPerimeter=0;entryX=0;entryY=0.5;entryDx=0;entryDy=0;" parent="1" source="nPId89hetOlhef9QkJUg-2" target="zeCSSIE1rZjSfiVyKvIU-1" edge="1">
          <mxGeometry relative="1" as="geometry" />
        </mxCell>
        <mxCell id="nPId89hetOlhef9QkJUg-2" value="" style="verticalLabelPosition=bottom;verticalAlign=top;html=1;shape=mxgraph.flowchart.or;" parent="1" vertex="1">
          <mxGeometry x="161" y="210" width="20" height="20" as="geometry" />
        </mxCell>
        <mxCell id="nPId89hetOlhef9QkJUg-4" value="+" style="text;html=1;align=center;verticalAlign=middle;resizable=0;points=[];autosize=1;strokeColor=none;fillColor=none;" parent="1" vertex="1">
          <mxGeometry x="155" y="190" width="30" height="30" as="geometry" />
        </mxCell>
        <mxCell id="nPId89hetOlhef9QkJUg-5" value="-" style="text;html=1;align=center;verticalAlign=middle;resizable=0;points=[];autosize=1;strokeColor=none;fillColor=none;" parent="1" vertex="1">
          <mxGeometry x="140" y="230" width="30" height="30" as="geometry" />
        </mxCell>
        <mxCell id="nPId89hetOlhef9QkJUg-6" style="edgeStyle=orthogonalEdgeStyle;rounded=0;orthogonalLoop=1;jettySize=auto;html=1;exitX=1;exitY=0.5;exitDx=0;exitDy=0;entryX=0;entryY=0.5;entryDx=0;entryDy=0;entryPerimeter=0;" parent="1" source="nPId89hetOlhef9QkJUg-1" target="nPId89hetOlhef9QkJUg-2" edge="1">
          <mxGeometry relative="1" as="geometry" />
        </mxCell>
        <mxCell id="nPId89hetOlhef9QkJUg-7" value="iq_ref" style="text;html=1;align=center;verticalAlign=middle;resizable=0;points=[];autosize=1;strokeColor=none;fillColor=none;" parent="1" vertex="1">
          <mxGeometry x="120" y="180" width="50" height="30" as="geometry" />
        </mxCell>
        <mxCell id="zeCSSIE1rZjSfiVyKvIU-5" style="edgeStyle=orthogonalEdgeStyle;rounded=0;orthogonalLoop=1;jettySize=auto;html=1;exitX=1;exitY=0.5;exitDx=0;exitDy=0;entryX=0;entryY=0.75;entryDx=0;entryDy=0;" parent="1" source="zeCSSIE1rZjSfiVyKvIU-1" target="zeCSSIE1rZjSfiVyKvIU-4" edge="1">
          <mxGeometry relative="1" as="geometry" />
        </mxCell>
        <mxCell id="zeCSSIE1rZjSfiVyKvIU-1" value="Current&lt;br&gt;&lt;div&gt;Regulator&amp;nbsp;&lt;/div&gt;" style="rounded=0;whiteSpace=wrap;html=1;fillColor=#dae8fc;strokeColor=#6c8ebf;" parent="1" vertex="1">
          <mxGeometry x="240" y="200" width="80" height="40" as="geometry" />
        </mxCell>
        <mxCell id="zeCSSIE1rZjSfiVyKvIU-6" style="edgeStyle=orthogonalEdgeStyle;rounded=0;orthogonalLoop=1;jettySize=auto;html=1;exitX=1;exitY=0.5;exitDx=0;exitDy=0;entryX=0;entryY=0.25;entryDx=0;entryDy=0;" parent="1" source="zeCSSIE1rZjSfiVyKvIU-2" target="zeCSSIE1rZjSfiVyKvIU-4" edge="1">
          <mxGeometry relative="1" as="geometry" />
        </mxCell>
        <mxCell id="zeCSSIE1rZjSfiVyKvIU-2" value="Current&lt;br&gt;&lt;div&gt;Regulator&amp;nbsp;&lt;/div&gt;" style="rounded=0;whiteSpace=wrap;html=1;fillColor=#dae8fc;strokeColor=#6c8ebf;" parent="1" vertex="1">
          <mxGeometry x="240" y="140" width="80" height="40" as="geometry" />
        </mxCell>
        <mxCell id="zeCSSIE1rZjSfiVyKvIU-26" style="edgeStyle=orthogonalEdgeStyle;rounded=0;orthogonalLoop=1;jettySize=auto;html=1;exitX=1;exitY=0.25;exitDx=0;exitDy=0;entryX=0;entryY=0.25;entryDx=0;entryDy=0;" parent="1" source="zeCSSIE1rZjSfiVyKvIU-4" target="zeCSSIE1rZjSfiVyKvIU-23" edge="1">
          <mxGeometry relative="1" as="geometry" />
        </mxCell>
        <mxCell id="zeCSSIE1rZjSfiVyKvIU-27" style="edgeStyle=orthogonalEdgeStyle;rounded=0;orthogonalLoop=1;jettySize=auto;html=1;exitX=1;exitY=0.75;exitDx=0;exitDy=0;" parent="1" source="zeCSSIE1rZjSfiVyKvIU-4" edge="1">
          <mxGeometry relative="1" as="geometry">
            <mxPoint x="480" y="220" as="targetPoint" />
          </mxGeometry>
        </mxCell>
        <mxCell id="zeCSSIE1rZjSfiVyKvIU-4" value="" style="rounded=0;whiteSpace=wrap;html=1;fillColor=#dae8fc;strokeColor=#6c8ebf;" parent="1" vertex="1">
          <mxGeometry x="360" y="130" width="80" height="120" as="geometry" />
        </mxCell>
        <mxCell id="zeCSSIE1rZjSfiVyKvIU-7" value="vq_ref" style="text;html=1;align=center;verticalAlign=middle;resizable=0;points=[];autosize=1;strokeColor=none;fillColor=none;" parent="1" vertex="1">
          <mxGeometry x="310" y="220" width="60" height="30" as="geometry" />
        </mxCell>
        <mxCell id="zeCSSIE1rZjSfiVyKvIU-8" value="vd_ref" style="text;html=1;align=center;verticalAlign=middle;resizable=0;points=[];autosize=1;strokeColor=none;fillColor=none;" parent="1" vertex="1">
          <mxGeometry x="310" y="130" width="60" height="30" as="geometry" />
        </mxCell>
        <mxCell id="zeCSSIE1rZjSfiVyKvIU-9" value="" style="endArrow=none;html=1;rounded=0;entryX=1;entryY=0;entryDx=0;entryDy=0;" parent="1" target="zeCSSIE1rZjSfiVyKvIU-4" edge="1">
          <mxGeometry width="50" height="50" relative="1" as="geometry">
            <mxPoint x="360" y="250" as="sourcePoint" />
            <mxPoint x="460" y="207.1428571428571" as="targetPoint" />
          </mxGeometry>
        </mxCell>
        <mxCell id="zeCSSIE1rZjSfiVyKvIU-10" value="dq" style="text;html=1;align=center;verticalAlign=middle;resizable=0;points=[];autosize=1;strokeColor=none;fillColor=none;" parent="1" vertex="1">
          <mxGeometry x="360" y="130" width="40" height="30" as="geometry" />
        </mxCell>
        <mxCell id="zeCSSIE1rZjSfiVyKvIU-13" value="αβ" style="text;strokeColor=none;align=center;fillColor=none;html=1;verticalAlign=middle;whiteSpace=wrap;rounded=0;" parent="1" vertex="1">
          <mxGeometry x="400" y="220" width="30" height="30" as="geometry" />
        </mxCell>
        <mxCell id="zeCSSIE1rZjSfiVyKvIU-14" value="Inverse&lt;div&gt;Park&lt;/div&gt;" style="text;html=1;align=center;verticalAlign=middle;resizable=0;points=[];autosize=1;strokeColor=none;fillColor=none;" parent="1" vertex="1">
          <mxGeometry x="370" y="180" width="60" height="40" as="geometry" />
        </mxCell>
        <mxCell id="zeCSSIE1rZjSfiVyKvIU-25" value="" style="group" parent="1" vertex="1" connectable="0">
          <mxGeometry x="480" y="130" width="100" height="120" as="geometry" />
        </mxCell>
        <mxCell id="zeCSSIE1rZjSfiVyKvIU-23" value="" style="rounded=0;whiteSpace=wrap;html=1;fillColor=#dae8fc;strokeColor=#6c8ebf;" parent="zeCSSIE1rZjSfiVyKvIU-25" vertex="1">
          <mxGeometry width="100" height="120" as="geometry" />
        </mxCell>
        <mxCell id="zeCSSIE1rZjSfiVyKvIU-21" value="" style="group" parent="zeCSSIE1rZjSfiVyKvIU-25" vertex="1" connectable="0">
          <mxGeometry y="10" width="100" height="80" as="geometry" />
        </mxCell>
        <mxCell id="zeCSSIE1rZjSfiVyKvIU-15" value="" style="shape=hexagon;perimeter=hexagonPerimeter2;whiteSpace=wrap;html=1;fixedSize=1;" parent="zeCSSIE1rZjSfiVyKvIU-21" vertex="1">
          <mxGeometry width="100" height="80" as="geometry" />
        </mxCell>
        <mxCell id="zeCSSIE1rZjSfiVyKvIU-16" value="" style="endArrow=classic;html=1;rounded=0;entryX=0.8;entryY=0;entryDx=0;entryDy=0;entryPerimeter=0;startArrow=classic;startFill=1;endFill=1;" parent="zeCSSIE1rZjSfiVyKvIU-21" target="zeCSSIE1rZjSfiVyKvIU-15" edge="1">
          <mxGeometry width="50" height="50" relative="1" as="geometry">
            <mxPoint x="20" y="80" as="sourcePoint" />
            <mxPoint x="70" y="30" as="targetPoint" />
          </mxGeometry>
        </mxCell>
        <mxCell id="zeCSSIE1rZjSfiVyKvIU-17" value="" style="endArrow=classic;html=1;rounded=0;entryX=0.81;entryY=1;entryDx=0;entryDy=0;entryPerimeter=0;endFill=1;startArrow=classic;startFill=1;" parent="zeCSSIE1rZjSfiVyKvIU-21" target="zeCSSIE1rZjSfiVyKvIU-15" edge="1">
          <mxGeometry width="50" height="50" relative="1" as="geometry">
            <mxPoint x="20" as="sourcePoint" />
            <mxPoint x="70" y="-50" as="targetPoint" />
          </mxGeometry>
        </mxCell>
        <mxCell id="zeCSSIE1rZjSfiVyKvIU-19" value="" style="endArrow=classic;html=1;rounded=0;entryX=1;entryY=0.5;entryDx=0;entryDy=0;endFill=1;startArrow=classic;startFill=1;" parent="zeCSSIE1rZjSfiVyKvIU-21" target="zeCSSIE1rZjSfiVyKvIU-15" edge="1">
          <mxGeometry width="50" height="50" relative="1" as="geometry">
            <mxPoint y="40" as="sourcePoint" />
            <mxPoint x="50" y="-10" as="targetPoint" />
          </mxGeometry>
        </mxCell>
        <mxCell id="zeCSSIE1rZjSfiVyKvIU-24" value="SVPWM" style="text;html=1;align=center;verticalAlign=middle;resizable=0;points=[];autosize=1;strokeColor=none;fillColor=none;" parent="zeCSSIE1rZjSfiVyKvIU-25" vertex="1">
          <mxGeometry x="15" y="90" width="70" height="30" as="geometry" />
        </mxCell>
        <mxCell id="zeCSSIE1rZjSfiVyKvIU-28" value="Vα_ref" style="text;html=1;align=center;verticalAlign=middle;resizable=0;points=[];autosize=1;strokeColor=none;fillColor=none;" parent="1" vertex="1">
          <mxGeometry x="430" y="130" width="60" height="30" as="geometry" />
        </mxCell>
        <mxCell id="zeCSSIE1rZjSfiVyKvIU-29" value="Vβ_ref" style="text;html=1;align=center;verticalAlign=middle;resizable=0;points=[];autosize=1;strokeColor=none;fillColor=none;" parent="1" vertex="1">
          <mxGeometry x="430" y="200" width="60" height="30" as="geometry" />
        </mxCell>
        <mxCell id="zeCSSIE1rZjSfiVyKvIU-34" style="edgeStyle=orthogonalEdgeStyle;rounded=0;orthogonalLoop=1;jettySize=auto;html=1;exitX=0;exitY=0.5;exitDx=0;exitDy=0;endArrow=none;endFill=0;startArrow=classic;startFill=1;" parent="1" source="zeCSSIE1rZjSfiVyKvIU-32" edge="1">
          <mxGeometry relative="1" as="geometry">
            <mxPoint x="580" y="190" as="targetPoint" />
          </mxGeometry>
        </mxCell>
        <mxCell id="zeCSSIE1rZjSfiVyKvIU-35" style="edgeStyle=orthogonalEdgeStyle;rounded=0;orthogonalLoop=1;jettySize=auto;html=1;exitX=0;exitY=0.25;exitDx=0;exitDy=0;endArrow=none;endFill=0;startArrow=classic;startFill=1;" parent="1" source="zeCSSIE1rZjSfiVyKvIU-32" edge="1">
          <mxGeometry relative="1" as="geometry">
            <mxPoint x="580" y="160" as="targetPoint" />
          </mxGeometry>
        </mxCell>
        <mxCell id="DrrW1L28EIdIVbYCVkLP-1" style="edgeStyle=orthogonalEdgeStyle;rounded=0;orthogonalLoop=1;jettySize=auto;html=1;exitX=1;exitY=0.25;exitDx=0;exitDy=0;entryX=0;entryY=0.25;entryDx=0;entryDy=0;" parent="1" source="zeCSSIE1rZjSfiVyKvIU-32" target="zeCSSIE1rZjSfiVyKvIU-40" edge="1">
          <mxGeometry relative="1" as="geometry" />
        </mxCell>
        <mxCell id="DrrW1L28EIdIVbYCVkLP-2" style="edgeStyle=orthogonalEdgeStyle;rounded=0;orthogonalLoop=1;jettySize=auto;html=1;exitX=1;exitY=0.5;exitDx=0;exitDy=0;entryX=0;entryY=0.5;entryDx=0;entryDy=0;" parent="1" source="zeCSSIE1rZjSfiVyKvIU-32" target="zeCSSIE1rZjSfiVyKvIU-40" edge="1">
          <mxGeometry relative="1" as="geometry" />
        </mxCell>
        <mxCell id="DrrW1L28EIdIVbYCVkLP-3" style="edgeStyle=orthogonalEdgeStyle;rounded=0;orthogonalLoop=1;jettySize=auto;html=1;exitX=1;exitY=0.75;exitDx=0;exitDy=0;entryX=0;entryY=0.75;entryDx=0;entryDy=0;" parent="1" source="zeCSSIE1rZjSfiVyKvIU-32" target="zeCSSIE1rZjSfiVyKvIU-40" edge="1">
          <mxGeometry relative="1" as="geometry" />
        </mxCell>
        <mxCell id="zeCSSIE1rZjSfiVyKvIU-32" value="PWM&lt;div&gt;Compensa&lt;/div&gt;&lt;div&gt;tion&lt;/div&gt;" style="rounded=0;whiteSpace=wrap;html=1;fillColor=#fff2cc;strokeColor=#d6b656;" parent="1" vertex="1">
          <mxGeometry x="610" y="130" width="70" height="120" as="geometry" />
        </mxCell>
        <mxCell id="zeCSSIE1rZjSfiVyKvIU-33" style="edgeStyle=orthogonalEdgeStyle;rounded=0;orthogonalLoop=1;jettySize=auto;html=1;exitX=1;exitY=0.75;exitDx=0;exitDy=0;entryX=0;entryY=0.75;entryDx=0;entryDy=0;" parent="1" source="zeCSSIE1rZjSfiVyKvIU-23" target="zeCSSIE1rZjSfiVyKvIU-32" edge="1">
          <mxGeometry relative="1" as="geometry" />
        </mxCell>
        <mxCell id="zeCSSIE1rZjSfiVyKvIU-36" value="Ta" style="text;html=1;align=center;verticalAlign=middle;resizable=0;points=[];autosize=1;strokeColor=none;fillColor=none;" parent="1" vertex="1">
          <mxGeometry x="570" y="140" width="40" height="30" as="geometry" />
        </mxCell>
        <mxCell id="zeCSSIE1rZjSfiVyKvIU-37" value="Tb" style="text;html=1;align=center;verticalAlign=middle;resizable=0;points=[];autosize=1;strokeColor=none;fillColor=none;" parent="1" vertex="1">
          <mxGeometry x="570" y="170" width="40" height="30" as="geometry" />
        </mxCell>
        <mxCell id="zeCSSIE1rZjSfiVyKvIU-39" value="Tc" style="text;html=1;align=center;verticalAlign=middle;resizable=0;points=[];autosize=1;strokeColor=none;fillColor=none;" parent="1" vertex="1">
          <mxGeometry x="570" y="200" width="40" height="30" as="geometry" />
        </mxCell>
        <mxCell id="DrrW1L28EIdIVbYCVkLP-7" style="edgeStyle=orthogonalEdgeStyle;rounded=0;orthogonalLoop=1;jettySize=auto;html=1;exitX=1;exitY=0.25;exitDx=0;exitDy=0;entryX=0;entryY=0;entryDx=0;entryDy=0;" parent="1" source="zeCSSIE1rZjSfiVyKvIU-40" target="zeCSSIE1rZjSfiVyKvIU-41" edge="1">
          <mxGeometry relative="1" as="geometry" />
        </mxCell>
        <mxCell id="DrrW1L28EIdIVbYCVkLP-8" style="edgeStyle=orthogonalEdgeStyle;rounded=0;orthogonalLoop=1;jettySize=auto;html=1;exitX=1;exitY=0.5;exitDx=0;exitDy=0;entryX=0;entryY=0.5;entryDx=0;entryDy=0;" parent="1" source="zeCSSIE1rZjSfiVyKvIU-40" target="zeCSSIE1rZjSfiVyKvIU-41" edge="1">
          <mxGeometry relative="1" as="geometry" />
        </mxCell>
        <mxCell id="DrrW1L28EIdIVbYCVkLP-9" style="edgeStyle=orthogonalEdgeStyle;rounded=0;orthogonalLoop=1;jettySize=auto;html=1;exitX=1;exitY=0.75;exitDx=0;exitDy=0;entryX=0;entryY=1;entryDx=0;entryDy=0;" parent="1" source="zeCSSIE1rZjSfiVyKvIU-40" target="zeCSSIE1rZjSfiVyKvIU-41" edge="1">
          <mxGeometry relative="1" as="geometry" />
        </mxCell>
        <mxCell id="zeCSSIE1rZjSfiVyKvIU-40" value="PWM" style="rounded=0;whiteSpace=wrap;html=1;fillColor=#d5e8d4;strokeColor=#82b366;" parent="1" vertex="1">
          <mxGeometry x="720" y="130" width="40" height="120" as="geometry" />
        </mxCell>
        <mxCell id="zeCSSIE1rZjSfiVyKvIU-41" value="M" style="ellipse;whiteSpace=wrap;html=1;aspect=fixed;fillColor=#f5f5f5;fontColor=#333333;strokeColor=#666666;" parent="1" vertex="1">
          <mxGeometry x="840" y="158" width="65" height="65" as="geometry" />
        </mxCell>
        <mxCell id="DrrW1L28EIdIVbYCVkLP-4" value="Ta&#39;" style="text;html=1;align=center;verticalAlign=middle;resizable=0;points=[];autosize=1;strokeColor=none;fillColor=none;" parent="1" vertex="1">
          <mxGeometry x="680" y="128" width="40" height="30" as="geometry" />
        </mxCell>
        <mxCell id="DrrW1L28EIdIVbYCVkLP-5" value="Tb&#39;" style="text;html=1;align=center;verticalAlign=middle;resizable=0;points=[];autosize=1;strokeColor=none;fillColor=none;" parent="1" vertex="1">
          <mxGeometry x="680" y="160" width="40" height="30" as="geometry" />
        </mxCell>
        <mxCell id="DrrW1L28EIdIVbYCVkLP-6" value="Tc&#39;" style="text;html=1;align=center;verticalAlign=middle;resizable=0;points=[];autosize=1;strokeColor=none;fillColor=none;" parent="1" vertex="1">
          <mxGeometry x="680" y="195" width="40" height="30" as="geometry" />
        </mxCell>
        <mxCell id="DrrW1L28EIdIVbYCVkLP-10" value="A" style="text;html=1;align=center;verticalAlign=middle;resizable=0;points=[];autosize=1;strokeColor=none;fillColor=none;" parent="1" vertex="1">
          <mxGeometry x="805" y="140" width="30" height="30" as="geometry" />
        </mxCell>
        <mxCell id="DrrW1L28EIdIVbYCVkLP-11" value="B" style="text;html=1;align=center;verticalAlign=middle;resizable=0;points=[];autosize=1;strokeColor=none;fillColor=none;" parent="1" vertex="1">
          <mxGeometry x="805" y="168" width="30" height="30" as="geometry" />
        </mxCell>
        <mxCell id="DrrW1L28EIdIVbYCVkLP-12" value="C" style="text;html=1;align=center;verticalAlign=middle;resizable=0;points=[];autosize=1;strokeColor=none;fillColor=none;" parent="1" vertex="1">
          <mxGeometry x="805" y="190" width="30" height="30" as="geometry" />
        </mxCell>
        <mxCell id="DrrW1L28EIdIVbYCVkLP-13" value="Vdc" style="text;html=1;align=center;verticalAlign=middle;resizable=0;points=[];autosize=1;strokeColor=none;fillColor=none;" parent="1" vertex="1">
          <mxGeometry x="510" y="60" width="40" height="30" as="geometry" />
        </mxCell>
        <mxCell id="DrrW1L28EIdIVbYCVkLP-14" style="edgeStyle=orthogonalEdgeStyle;rounded=0;orthogonalLoop=1;jettySize=auto;html=1;exitX=0.5;exitY=0;exitDx=0;exitDy=0;endArrow=none;endFill=0;startArrow=classic;startFill=1;" parent="1" source="zeCSSIE1rZjSfiVyKvIU-23" target="DrrW1L28EIdIVbYCVkLP-13" edge="1">
          <mxGeometry relative="1" as="geometry" />
        </mxCell>
        <mxCell id="xuwa6vWzVNVJYXYEkQNP-1" value="ADC" style="rounded=0;whiteSpace=wrap;html=1;fillColor=#d5e8d4;strokeColor=#82b366;" vertex="1" parent="1">
          <mxGeometry x="720" y="320" width="40" height="240" as="geometry" />
        </mxCell>
        <mxCell id="xuwa6vWzVNVJYXYEkQNP-7" value="" style="group" vertex="1" connectable="0" parent="1">
          <mxGeometry x="480" y="320" width="85" height="80" as="geometry" />
        </mxCell>
        <mxCell id="xuwa6vWzVNVJYXYEkQNP-2" value="" style="rounded=0;whiteSpace=wrap;html=1;fillColor=#dae8fc;strokeColor=#6c8ebf;" vertex="1" parent="xuwa6vWzVNVJYXYEkQNP-7">
          <mxGeometry width="80" height="80" as="geometry" />
        </mxCell>
        <mxCell id="xuwa6vWzVNVJYXYEkQNP-3" value="" style="endArrow=none;html=1;rounded=0;entryX=1;entryY=0;entryDx=0;entryDy=0;" edge="1" parent="xuwa6vWzVNVJYXYEkQNP-7" target="xuwa6vWzVNVJYXYEkQNP-2">
          <mxGeometry width="50" height="50" relative="1" as="geometry">
            <mxPoint y="80" as="sourcePoint" />
            <mxPoint x="50" y="30" as="targetPoint" />
          </mxGeometry>
        </mxCell>
        <mxCell id="xuwa6vWzVNVJYXYEkQNP-4" value="abc" style="text;html=1;align=center;verticalAlign=middle;resizable=0;points=[];autosize=1;strokeColor=none;fillColor=none;" vertex="1" parent="xuwa6vWzVNVJYXYEkQNP-7">
          <mxGeometry x="45" y="50" width="40" height="30" as="geometry" />
        </mxCell>
        <mxCell id="xuwa6vWzVNVJYXYEkQNP-6" value="Clark&lt;div&gt;Tr&lt;/div&gt;" style="text;html=1;align=center;verticalAlign=middle;resizable=0;points=[];autosize=1;strokeColor=none;fillColor=none;" vertex="1" parent="xuwa6vWzVNVJYXYEkQNP-7">
          <mxGeometry x="15" y="30" width="50" height="40" as="geometry" />
        </mxCell>
        <mxCell id="xuwa6vWzVNVJYXYEkQNP-5" value="αβ" style="text;html=1;align=center;verticalAlign=middle;resizable=0;points=[];autosize=1;strokeColor=none;fillColor=none;" vertex="1" parent="xuwa6vWzVNVJYXYEkQNP-7">
          <mxGeometry width="40" height="30" as="geometry" />
        </mxCell>
        <mxCell id="xuwa6vWzVNVJYXYEkQNP-9" value="idc1" style="text;html=1;align=center;verticalAlign=middle;resizable=0;points=[];autosize=1;strokeColor=none;fillColor=none;" vertex="1" parent="1">
          <mxGeometry x="675" y="310" width="50" height="30" as="geometry" />
        </mxCell>
        <mxCell id="xuwa6vWzVNVJYXYEkQNP-12" style="edgeStyle=orthogonalEdgeStyle;rounded=0;orthogonalLoop=1;jettySize=auto;html=1;exitX=1;exitY=0.75;exitDx=0;exitDy=0;entryX=0;entryY=0.25;entryDx=0;entryDy=0;endArrow=none;endFill=0;startArrow=classic;startFill=1;" edge="1" parent="1" source="xuwa6vWzVNVJYXYEkQNP-10" target="xuwa6vWzVNVJYXYEkQNP-1">
          <mxGeometry relative="1" as="geometry" />
        </mxCell>
        <mxCell id="xuwa6vWzVNVJYXYEkQNP-14" style="edgeStyle=orthogonalEdgeStyle;rounded=0;orthogonalLoop=1;jettySize=auto;html=1;exitX=0;exitY=0.25;exitDx=0;exitDy=0;entryX=1;entryY=0.25;entryDx=0;entryDy=0;" edge="1" parent="1" source="xuwa6vWzVNVJYXYEkQNP-10" target="xuwa6vWzVNVJYXYEkQNP-2">
          <mxGeometry relative="1" as="geometry" />
        </mxCell>
        <mxCell id="xuwa6vWzVNVJYXYEkQNP-16" style="edgeStyle=orthogonalEdgeStyle;rounded=0;orthogonalLoop=1;jettySize=auto;html=1;exitX=0;exitY=0.5;exitDx=0;exitDy=0;entryX=1;entryY=0.5;entryDx=0;entryDy=0;" edge="1" parent="1" source="xuwa6vWzVNVJYXYEkQNP-10" target="xuwa6vWzVNVJYXYEkQNP-2">
          <mxGeometry relative="1" as="geometry" />
        </mxCell>
        <mxCell id="xuwa6vWzVNVJYXYEkQNP-10" value="Current&lt;div&gt;reconstruc&lt;/div&gt;&lt;div&gt;tion&lt;/div&gt;" style="rounded=0;whiteSpace=wrap;html=1;fillColor=#fff2cc;strokeColor=#d6b656;" vertex="1" parent="1">
          <mxGeometry x="610" y="320" width="70" height="80" as="geometry" />
        </mxCell>
        <mxCell id="xuwa6vWzVNVJYXYEkQNP-11" style="edgeStyle=orthogonalEdgeStyle;rounded=0;orthogonalLoop=1;jettySize=auto;html=1;exitX=1;exitY=0.25;exitDx=0;exitDy=0;entryX=0.025;entryY=0.081;entryDx=0;entryDy=0;entryPerimeter=0;endArrow=none;endFill=0;startArrow=classic;startFill=1;" edge="1" parent="1" source="xuwa6vWzVNVJYXYEkQNP-10" target="xuwa6vWzVNVJYXYEkQNP-1">
          <mxGeometry relative="1" as="geometry" />
        </mxCell>
        <mxCell id="xuwa6vWzVNVJYXYEkQNP-13" value="idc2" style="text;html=1;align=center;verticalAlign=middle;resizable=0;points=[];autosize=1;strokeColor=none;fillColor=none;" vertex="1" parent="1">
          <mxGeometry x="675" y="350" width="50" height="30" as="geometry" />
        </mxCell>
        <mxCell id="xuwa6vWzVNVJYXYEkQNP-15" value="ia" style="text;html=1;align=center;verticalAlign=middle;resizable=0;points=[];autosize=1;strokeColor=none;fillColor=none;" vertex="1" parent="1">
          <mxGeometry x="575" y="308" width="30" height="30" as="geometry" />
        </mxCell>
        <mxCell id="xuwa6vWzVNVJYXYEkQNP-17" value="ib" style="text;html=1;align=center;verticalAlign=middle;resizable=0;points=[];autosize=1;strokeColor=none;fillColor=none;" vertex="1" parent="1">
          <mxGeometry x="575" y="338" width="30" height="30" as="geometry" />
        </mxCell>
        <mxCell id="xuwa6vWzVNVJYXYEkQNP-18" style="edgeStyle=orthogonalEdgeStyle;rounded=0;orthogonalLoop=1;jettySize=auto;html=1;exitX=0;exitY=0.75;exitDx=0;exitDy=0;entryX=0.875;entryY=0.333;entryDx=0;entryDy=0;entryPerimeter=0;" edge="1" parent="1" source="xuwa6vWzVNVJYXYEkQNP-10" target="xuwa6vWzVNVJYXYEkQNP-4">
          <mxGeometry relative="1" as="geometry" />
        </mxCell>
        <mxCell id="xuwa6vWzVNVJYXYEkQNP-19" value="ic" style="text;html=1;align=center;verticalAlign=middle;resizable=0;points=[];autosize=1;strokeColor=none;fillColor=none;" vertex="1" parent="1">
          <mxGeometry x="575" y="360" width="30" height="30" as="geometry" />
        </mxCell>
        <mxCell id="xuwa6vWzVNVJYXYEkQNP-21" value="" style="group" vertex="1" connectable="0" parent="1">
          <mxGeometry x="360" y="320" width="85" height="80" as="geometry" />
        </mxCell>
        <mxCell id="xuwa6vWzVNVJYXYEkQNP-22" value="" style="rounded=0;whiteSpace=wrap;html=1;fillColor=#dae8fc;strokeColor=#6c8ebf;" vertex="1" parent="xuwa6vWzVNVJYXYEkQNP-21">
          <mxGeometry width="80" height="80" as="geometry" />
        </mxCell>
        <mxCell id="xuwa6vWzVNVJYXYEkQNP-23" value="" style="endArrow=none;html=1;rounded=0;entryX=1;entryY=0;entryDx=0;entryDy=0;" edge="1" parent="xuwa6vWzVNVJYXYEkQNP-21" target="xuwa6vWzVNVJYXYEkQNP-22">
          <mxGeometry width="50" height="50" relative="1" as="geometry">
            <mxPoint y="80" as="sourcePoint" />
            <mxPoint x="50" y="30" as="targetPoint" />
          </mxGeometry>
        </mxCell>
        <mxCell id="xuwa6vWzVNVJYXYEkQNP-24" value="αβ" style="text;html=1;align=center;verticalAlign=middle;resizable=0;points=[];autosize=1;strokeColor=none;fillColor=none;" vertex="1" parent="xuwa6vWzVNVJYXYEkQNP-21">
          <mxGeometry x="37" y="50" width="40" height="30" as="geometry" />
        </mxCell>
        <mxCell id="xuwa6vWzVNVJYXYEkQNP-25" value="dq" style="text;html=1;align=center;verticalAlign=middle;resizable=0;points=[];autosize=1;strokeColor=none;fillColor=none;" vertex="1" parent="xuwa6vWzVNVJYXYEkQNP-21">
          <mxGeometry x="10" width="40" height="30" as="geometry" />
        </mxCell>
        <mxCell id="xuwa6vWzVNVJYXYEkQNP-26" value="Park&lt;div&gt;Tr&lt;/div&gt;" style="text;html=1;align=center;verticalAlign=middle;resizable=0;points=[];autosize=1;strokeColor=none;fillColor=none;" vertex="1" parent="xuwa6vWzVNVJYXYEkQNP-21">
          <mxGeometry x="15" y="30" width="50" height="40" as="geometry" />
        </mxCell>
        <mxCell id="xuwa6vWzVNVJYXYEkQNP-28" style="edgeStyle=orthogonalEdgeStyle;rounded=0;orthogonalLoop=1;jettySize=auto;html=1;exitX=0;exitY=0.75;exitDx=0;exitDy=0;entryX=1;entryY=0.317;entryDx=0;entryDy=0;entryPerimeter=0;" edge="1" parent="1" source="xuwa6vWzVNVJYXYEkQNP-2" target="xuwa6vWzVNVJYXYEkQNP-24">
          <mxGeometry relative="1" as="geometry" />
        </mxCell>
        <mxCell id="xuwa6vWzVNVJYXYEkQNP-29" style="edgeStyle=orthogonalEdgeStyle;rounded=0;orthogonalLoop=1;jettySize=auto;html=1;exitX=0;exitY=0.25;exitDx=0;exitDy=0;entryX=1;entryY=0.25;entryDx=0;entryDy=0;" edge="1" parent="1" source="xuwa6vWzVNVJYXYEkQNP-2" target="xuwa6vWzVNVJYXYEkQNP-22">
          <mxGeometry relative="1" as="geometry" />
        </mxCell>
        <mxCell id="xuwa6vWzVNVJYXYEkQNP-30" value="iα" style="text;html=1;align=center;verticalAlign=middle;resizable=0;points=[];autosize=1;strokeColor=none;fillColor=none;" vertex="1" parent="1">
          <mxGeometry x="445" y="312" width="30" height="30" as="geometry" />
        </mxCell>
        <mxCell id="xuwa6vWzVNVJYXYEkQNP-31" value="iβ" style="text;html=1;align=center;verticalAlign=middle;resizable=0;points=[];autosize=1;strokeColor=none;fillColor=none;" vertex="1" parent="1">
          <mxGeometry x="445" y="358" width="30" height="30" as="geometry" />
        </mxCell>
        <mxCell id="xuwa6vWzVNVJYXYEkQNP-34" style="edgeStyle=orthogonalEdgeStyle;rounded=0;orthogonalLoop=1;jettySize=auto;html=1;exitX=1;exitY=0.5;exitDx=0;exitDy=0;exitPerimeter=0;entryX=0;entryY=0.5;entryDx=0;entryDy=0;" edge="1" parent="1" source="xuwa6vWzVNVJYXYEkQNP-32" target="zeCSSIE1rZjSfiVyKvIU-2">
          <mxGeometry relative="1" as="geometry" />
        </mxCell>
        <mxCell id="xuwa6vWzVNVJYXYEkQNP-32" value="" style="verticalLabelPosition=bottom;verticalAlign=top;html=1;shape=mxgraph.flowchart.or;" vertex="1" parent="1">
          <mxGeometry x="190" y="150" width="20" height="20" as="geometry" />
        </mxCell>
        <mxCell id="xuwa6vWzVNVJYXYEkQNP-35" value="id_ref = 0" style="text;html=1;align=center;verticalAlign=middle;resizable=0;points=[];autosize=1;strokeColor=none;fillColor=none;" vertex="1" parent="1">
          <mxGeometry x="120" y="130" width="70" height="30" as="geometry" />
        </mxCell>
        <mxCell id="xuwa6vWzVNVJYXYEkQNP-36" value="" style="endArrow=classic;html=1;rounded=0;" edge="1" parent="1">
          <mxGeometry width="50" height="50" relative="1" as="geometry">
            <mxPoint x="150" y="160" as="sourcePoint" />
            <mxPoint x="190" y="160" as="targetPoint" />
          </mxGeometry>
        </mxCell>
        <mxCell id="xuwa6vWzVNVJYXYEkQNP-37" value="+" style="text;html=1;align=center;verticalAlign=middle;resizable=0;points=[];autosize=1;strokeColor=none;fillColor=none;" vertex="1" parent="1">
          <mxGeometry x="190" y="120" width="30" height="30" as="geometry" />
        </mxCell>
        <mxCell id="xuwa6vWzVNVJYXYEkQNP-38" value="-" style="text;html=1;align=center;verticalAlign=middle;resizable=0;points=[];autosize=1;strokeColor=none;fillColor=none;" vertex="1" parent="1">
          <mxGeometry x="170" y="158" width="30" height="30" as="geometry" />
        </mxCell>
        <mxCell id="xuwa6vWzVNVJYXYEkQNP-39" style="edgeStyle=orthogonalEdgeStyle;rounded=0;orthogonalLoop=1;jettySize=auto;html=1;exitX=0;exitY=0.25;exitDx=0;exitDy=0;entryX=0.933;entryY=0.45;entryDx=0;entryDy=0;entryPerimeter=0;" edge="1" parent="1" source="xuwa6vWzVNVJYXYEkQNP-22" target="xuwa6vWzVNVJYXYEkQNP-38">
          <mxGeometry relative="1" as="geometry" />
        </mxCell>
        <mxCell id="xuwa6vWzVNVJYXYEkQNP-40" value="id" style="text;html=1;align=center;verticalAlign=middle;resizable=0;points=[];autosize=1;strokeColor=none;fillColor=none;" vertex="1" parent="1">
          <mxGeometry x="245" y="308" width="30" height="30" as="geometry" />
        </mxCell>
        <mxCell id="xuwa6vWzVNVJYXYEkQNP-42" style="edgeStyle=orthogonalEdgeStyle;rounded=0;orthogonalLoop=1;jettySize=auto;html=1;exitX=0;exitY=0.75;exitDx=0;exitDy=0;entryX=0.5;entryY=1;entryDx=0;entryDy=0;entryPerimeter=0;" edge="1" parent="1" source="xuwa6vWzVNVJYXYEkQNP-22" target="nPId89hetOlhef9QkJUg-2">
          <mxGeometry relative="1" as="geometry" />
        </mxCell>
        <mxCell id="xuwa6vWzVNVJYXYEkQNP-43" value="iq" style="text;html=1;align=center;verticalAlign=middle;resizable=0;points=[];autosize=1;strokeColor=none;fillColor=none;" vertex="1" parent="1">
          <mxGeometry x="245" y="348" width="30" height="30" as="geometry" />
        </mxCell>
        <mxCell id="xuwa6vWzVNVJYXYEkQNP-44" value="Vdc" style="text;html=1;align=center;verticalAlign=middle;resizable=0;points=[];autosize=1;strokeColor=none;fillColor=none;" vertex="1" parent="1">
          <mxGeometry x="685" y="390" width="40" height="30" as="geometry" />
        </mxCell>
        <mxCell id="xuwa6vWzVNVJYXYEkQNP-45" value="" style="endArrow=none;html=1;rounded=0;endFill=0;startArrow=classic;startFill=1;" edge="1" parent="1">
          <mxGeometry width="50" height="50" relative="1" as="geometry">
            <mxPoint x="690" y="416" as="sourcePoint" />
            <mxPoint x="721" y="416" as="targetPoint" />
          </mxGeometry>
        </mxCell>
      </root>
    </mxGraphModel>
  </diagram>
</mxfile>
